<svg xmlns="http://www.w3.org/2000/svg" width="25" height="23.263" viewBox="0 0 25 23.263"><defs><style>.a{fill:none;stroke:#242426;stroke-linecap:round;stroke-linejoin:round;stroke-miterlimit:10;stroke-width:2px;}</style></defs><g transform="translate(1 1)"><path class="a" d="M1.108,5.421,4.952,1.175A2.57,2.57,0,0,0,1.108.835C-1.108,2.661,1.108,5.421,1.108,5.421Z" transform="translate(5.094 0.267)"/><path class="a" d="M4.22,1.159A2.706,2.706,0,0,0,1.86,0C.168,0,0,2.113,0,2.972V8.33" transform="translate(1.881)"/><rect class="a" width="23" height="3.354" rx="1.677" transform="translate(0 8.726)"/><path class="a" d="M0,0H20.125a0,0,0,0,1,0,0V0a7.188,7.188,0,0,1-7.187,7.188H7.188A7.188,7.188,0,0,1,0,0V0A0,0,0,0,1,0,0Z" transform="translate(1.438 11.984)"/><path class="a" d="M.24,1.677,1.917,0" transform="translate(3.354 19.171)"/><path class="a" d="M-.24,1.677-1.917,0" transform="translate(17.729 19.171)"/></g></svg>