<svg xmlns="http://www.w3.org/2000/svg" width="24.613" height="21.848" viewBox="0 0 24.613 21.848"><defs><style>.a{fill:none;stroke:#242426;stroke-linecap:round;stroke-linejoin:round;stroke-miterlimit:10;stroke-width:2px;}</style></defs><g transform="translate(1 1)"><path class="a" d="M0,9.739V4A4,4,0,0,1,4,0H17.613a5,5,0,0,1,5,5V9.093" transform="translate(0 10.109)"/><path class="a" d="M.245.734H22.353" transform="translate(0 14.024)"/><path class="a" d="M.234.767H17.565" transform="translate(1.957 5.199)"/><path class="a" d="M.734.245V8.564" transform="translate(1.468 1.301)"/><path class="a" d="M.734.245V8.564" transform="translate(19.297 1.301)"/><path class="a" d="M17.331,5.279A9.855,9.855,0,0,0,8.686,0,9.86,9.86,0,0,0,0,5.355" transform="translate(2.426)"/></g></svg>