<svg xmlns="http://www.w3.org/2000/svg" width="33.543" height="16.771" viewBox="0 0 33.543 16.771"><g transform="translate(0 -128)"><g transform="translate(2.795 137.783)"><path d="M46.161,277.333a3.494,3.494,0,1,0,3.494,3.494A3.5,3.5,0,0,0,46.161,277.333Zm0,5.591a2.1,2.1,0,1,1,2.1-2.1A2.1,2.1,0,0,1,46.161,282.924Z" transform="translate(-42.667 -277.333)"/></g><g transform="translate(23.76 137.783)"><path d="M366.161,277.333a3.494,3.494,0,1,0,3.494,3.494A3.5,3.5,0,0,0,366.161,277.333Zm0,5.591a2.1,2.1,0,1,1,2.1-2.1A2.1,2.1,0,0,1,366.161,282.924Z" transform="translate(-362.667 -277.333)"/></g><g transform="translate(0 128)"><path d="M29.35,133.59H28.168a1.913,1.913,0,0,1-1.194-.419l-5.507-4.405A3.513,3.513,0,0,0,19.284,128H9.182a3.487,3.487,0,0,0-2.907,1.556l-1.189,1.786a1.913,1.913,0,0,1-1.592.851A3.5,3.5,0,0,0,0,135.687v2.8a3.5,3.5,0,0,0,3.494,3.494.7.7,0,1,0,0-1.4,2.1,2.1,0,0,1-2.1-2.1v-2.8a2.1,2.1,0,0,1,2.1-2.1,3.3,3.3,0,0,0,2.755-1.475l1.189-1.785a2.1,2.1,0,0,1,1.744-.934h10.1a2.109,2.109,0,0,1,1.311.46l5.507,4.4a3.314,3.314,0,0,0,2.067.727H29.35c2.05,0,2.8,2.089,2.8,3.494a2.029,2.029,0,0,1-2.1,2.1.7.7,0,0,0,0,1.4,3.418,3.418,0,0,0,3.494-3.494C33.543,136.11,32.074,133.59,29.35,133.59Z" transform="translate(0 -128)"/></g><g transform="translate(8.386 140.579)"><path d="M144.073,320H128.7a.7.7,0,0,0,0,1.4h15.374a.7.7,0,1,0,0-1.4Z" transform="translate(-128 -320)"/></g><g transform="translate(15.374 130.795)"><path d="M242.353,173.461h-6.289v-2.1a.7.7,0,0,0-1.4,0v2.8a.7.7,0,0,0,.7.7h6.988a.7.7,0,1,0,0-1.4Z" transform="translate(-234.666 -170.666)"/></g><g transform="translate(6.988 130.796)"><path d="M112.957,173.466H108.5l.893-1.783a.7.7,0,0,0-1.251-.625l-1.4,2.8a.7.7,0,0,0,.625,1.01h5.59a.7.7,0,0,0,0-1.4Z" transform="translate(-106.668 -170.671)"/></g><g transform="translate(16.771 136.386)"><path d="M258.1,256h-1.4a.7.7,0,1,0,0,1.4h1.4a.7.7,0,1,0,0-1.4Z" transform="translate(-256 -256)"/></g></g></svg>