<svg xmlns="http://www.w3.org/2000/svg" width="25.06" height="21.655" viewBox="0 0 25.06 21.655"><g transform="translate(0 -0.499)"><path d="M85.584,179.4H84.5l-1.112-2.634a2.626,2.626,0,0,0-2.4-1.634H75.366a2.626,2.626,0,0,0-2.4,1.634L71.85,179.4H70.766a1.745,1.745,0,0,0-1.743,1.743v2.924a1.746,1.746,0,0,0,1.255,1.673v.753a1.749,1.749,0,0,0,1.747,1.747h1.4a1.749,1.749,0,0,0,1.747-1.747v-.683h6.006v.683a1.749,1.749,0,0,0,1.747,1.747h1.4a1.749,1.749,0,0,0,1.747-1.747v-.753a1.746,1.746,0,0,0,1.255-1.673v-2.924a1.745,1.745,0,0,0-1.743-1.743Zm-10.217-2.771h5.617a1.133,1.133,0,0,1,1.026.72l.866,2.051h-9.4l.866-2.051a1.133,1.133,0,0,1,1.026-.72ZM85.584,180.9a.247.247,0,0,1,.246.246v2.924a.246.246,0,0,1-.246.246H70.766a.246.246,0,0,1-.246-.246v-2.924a.247.247,0,0,1,.246-.246Zm-11.909,5.6a.25.25,0,0,1-.25.25h-1.4a.25.25,0,0,1-.25-.25v-.683h1.9Zm10.9,0a.25.25,0,0,1-.25.25h-1.4a.25.25,0,0,1-.25-.25v-.683h1.9Zm0,0" transform="translate(-65.645 -166.09)"/><path d="M190.674,314.016h4.971a.749.749,0,1,0,0-1.5h-4.971a.749.749,0,1,0,0,1.5Zm0,0" transform="translate(-180.63 -296.748)"/><path d="M350.365,314.016a.749.749,0,1,0-.749-.749A.757.757,0,0,0,350.365,314.016Zm0,0" transform="translate(-332.504 -296.748)"/><path d="M132.521,314.016a.749.749,0,1,0-.748-.749A.757.757,0,0,0,132.521,314.016Zm0,0" transform="translate(-125.323 -296.748)"/><path d="M24.631,6.135,12.849.571a.748.748,0,0,0-.639,0L.429,6.135A.749.749,0,0,0,0,6.812V21.406a.749.749,0,0,0,1.5,0V7.286L12.53,2.075,23.562,7.286V21.406a.749.749,0,0,0,1.5,0V6.812a.749.749,0,0,0-.429-.677Zm0,0"/></g></svg>