<svg xmlns="http://www.w3.org/2000/svg" width="26.971" height="20.755" viewBox="0 0 26.971 20.755"><defs><style>.a{fill:#242426;}</style></defs><g transform="translate(-4 -66)"><g transform="translate(4 66)"><path class="a" d="M308.864,282.919h-4a1.054,1.054,0,1,0,0,2.107h1.46l-5.054,5.054a1.054,1.054,0,0,0,1.49,1.49l5.054-5.054v1.46a1.054,1.054,0,1,0,2.107,0v-4h0A1.055,1.055,0,0,0,308.864,282.919Z" transform="translate(-285.105 -271.123)"/><path class="a" d="M25.918,59H19.7a1.054,1.054,0,0,0-1.054,1.054v5.162H13.486a1.054,1.054,0,0,0-1.054,1.054v5.162H7.27a1.054,1.054,0,0,0-1.054,1.054v5.162H1.054a1.054,1.054,0,0,0,0,2.107H7.27A1.054,1.054,0,0,0,8.323,78.7V73.539h5.162a1.054,1.054,0,0,0,1.054-1.054V67.323H19.7a1.054,1.054,0,0,0,1.054-1.054V61.107h5.162a1.054,1.054,0,0,0,0-2.107Z" transform="translate(0 -59)"/></g></g></svg>