<svg xmlns="http://www.w3.org/2000/svg" width="19.116" height="23.756" viewBox="0 0 19.116 23.756"><defs><style>.a,.b,.c{fill:#beaf87;}.a,.b{stroke:#1a1818;}.a,.c{stroke-linecap:round;}.a{stroke-linejoin:round;}.b{stroke-miterlimit:10;}.c{stroke:#72612f;stroke-width:0.8px;}</style></defs><g transform="translate(-26.893 -717.893)"><g transform="translate(28.13 727.205)"><path class="a" d="M0,0H4.47V13.062L2.188,11.687,0,13.062Z" transform="translate(4.467 0) rotate(20)"/><path class="a" d="M0,13.062h4.47V0L2.189,1.375,0,0Z" transform="translate(16.23 12.274) rotate(160)"/></g><path class="b" d="M767.43,1358.48l2.024,1.4,2.451-.2,1.055,2.221,2.221,1.055-.2,2.451,1.4,2.024-1.4,2.024.2,2.451-2.221,1.055-1.055,2.221-2.451-.2-2.024,1.4-2.024-1.4-2.451.2-1.055-2.221-2.221-1.055.2-2.451-1.4-2.024,1.4-2.024-.2-2.451,2.221-1.055,1.055-2.221,2.451.2Z" transform="translate(-730.979 -639.98)"/><path class="c" d="M5.511,0a5.511,5.511,0,0,1,5.511,5.51A5.65,5.65,0,0,1,7.7,10.567a5.049,5.049,0,0,1-2.192.453A5.511,5.511,0,0,1,0,5.51,5.67,5.67,0,0,1,2.729.752" transform="translate(30.944 721.944)"/></g></svg>