<svg xmlns="http://www.w3.org/2000/svg" width="20.678" height="20.677" viewBox="0 0 20.678 20.677"><g transform="translate(-0.002 -0.02)"><g transform="translate(0.002 1.115)"><path d="M19.144,41.38l-2.559-2.648-.007-.007a1.816,1.816,0,0,0-2.57,0l-1.168,1.168a1.376,1.376,0,0,1-1.947,0h0L6.829,35.925a1.376,1.376,0,0,1,0-1.947L8,32.81a1.819,1.819,0,0,0,0-2.57l-2.57-2.57a1.819,1.819,0,0,0-2.57,0L2,28.527l-.078.078a6.55,6.55,0,0,0,0,9.268L8.945,44.8a6.549,6.549,0,0,0,9.259.009c.014-.013.922-.849.935-.863A1.819,1.819,0,0,0,19.144,41.38ZM3.714,28.527a.606.606,0,0,1,.857,0l2.57,2.57a.605.605,0,0,1,0,.857l-.428.428L3.285,28.955ZM9.8,43.942,2.779,37.016a5.338,5.338,0,0,1-.334-7.188L5.86,33.243a2.591,2.591,0,0,0,.113,3.54l4.063,3.967a2.586,2.586,0,0,0,3.539.112l3.414,3.414A5.325,5.325,0,0,1,9.8,43.942Zm8.488-.861-.407.375L14.436,40.01l.428-.428a.605.605,0,0,1,.854,0l2.565,2.654A.606.606,0,0,1,18.29,43.081Z" transform="translate(-0.002 -27.139)"/></g><g transform="translate(9.776 0.02)"><path d="M242.627.02a.606.606,0,1,0,0,1.212,9.1,9.1,0,0,1,9.086,9.086.606.606,0,0,0,1.212,0A10.292,10.292,0,0,0,242.627.02Z" transform="translate(-242.021 -0.02)"/></g><g transform="translate(9.776 2.443)"><path d="M242.627,60.015a.606.606,0,1,0,0,1.212,6.671,6.671,0,0,1,6.663,6.663.606.606,0,1,0,1.212,0A7.884,7.884,0,0,0,242.627,60.015Z" transform="translate(-242.021 -60.015)"/></g><g transform="translate(9.776 4.866)"><path d="M242.627,120.011a.606.606,0,0,0,0,1.212,4.245,4.245,0,0,1,4.24,4.24.606.606,0,0,0,1.212,0A5.458,5.458,0,0,0,242.627,120.011Z" transform="translate(-242.021 -120.011)"/></g><g transform="translate(9.776 7.289)"><path d="M242.627,180.006a.606.606,0,1,0,0,1.212,1.819,1.819,0,0,1,1.817,1.817.606.606,0,1,0,1.212,0A3.032,3.032,0,0,0,242.627,180.006Z" transform="translate(-242.021 -180.006)"/></g></g></svg>